<svg width="14" height="11" viewBox="0 0 14 11" fill="none" xmlns="http://www.w3.org/2000/svg">
<g clip-path="url(#clip0_2501_1784)">
<path d="M2.40134 6.19344C2.47454 6.26878 2.51442 6.31183 2.55606 6.35317C3.7118 7.48895 4.87062 8.62171 6.01979 9.76395C6.13637 9.87976 6.2363 10.0412 6.27487 10.1979C6.34981 10.5002 6.18721 10.7856 5.9146 10.923C5.64462 11.059 5.32555 11.0142 5.09809 10.7942C4.67339 10.3835 4.2544 9.96716 3.83277 9.55341C2.6573 8.39912 1.48183 7.2444 0.306801 6.08967C-0.103868 5.68625 -0.102115 5.3289 0.311184 4.92247C1.89644 3.36561 3.48214 1.80919 5.06609 0.250619C5.27033 0.0499845 5.50174 -0.0507631 5.79145 0.0254434C6.27794 0.152885 6.4721 0.714316 6.16442 1.10568C6.11796 1.1651 6.06274 1.21805 6.00883 1.27101C4.85703 2.40334 3.70479 3.53482 2.55299 4.66672C2.51135 4.70762 2.47191 4.75025 2.40091 4.82344C2.50127 4.82344 2.56351 4.82344 2.62574 4.82344C6.14163 4.82344 9.65708 4.82344 13.173 4.82516C13.297 4.82516 13.4276 4.83076 13.5438 4.86822C13.8624 4.97112 14.0412 5.28628 13.9917 5.62253C13.9465 5.92908 13.673 6.17148 13.3492 6.18999C13.2782 6.19387 13.2072 6.193 13.1362 6.193C9.63692 6.193 6.13769 6.193 2.63845 6.193H2.40134V6.19344Z" fill="#4C4C4C"/>
</g>
<defs>
<clipPath id="clip0_2501_1784">
<rect width="14" height="11" fill="white"/>
</clipPath>
</defs>
</svg>
