<svg width="60" height="60" viewBox="0 0 60 60" fill="none" xmlns="http://www.w3.org/2000/svg">
<circle cx="30" cy="30" r="29" fill="#212121" stroke="#E20015" stroke-width="2"/>
<mask id="mask0_2501_719" style="mask-type:alpha" maskUnits="userSpaceOnUse" x="2" y="3" width="56" height="56">
<circle cx="30" cy="31" r="28" fill="#E3F2FF"/>
</mask>
<g mask="url(#mask0_2501_719)">
<path d="M30.452 48.801C34.9504 48.9871 35.4037 45.4188 35.3868 43.846C33.8282 43.3649 32.2049 43.1265 30.5738 43.1392C28.9641 43.1307 27.3619 43.3586 25.8184 43.8156C25.7101 45.2936 25.9706 48.6184 30.452 48.801Z" fill="#C66767"/>
<path d="M35.3871 43.8453C35.3871 45.4316 34.9508 48.9864 30.4524 48.8003C25.954 48.6143 25.7173 45.293 25.8187 43.8115C15.5536 46.8725 13 59.4003 13 59.4003H46.6906C46.6906 59.4003 45.2701 46.9739 35.3871 43.8453Z" fill="#E20015"/>
<path d="M21.189 20.7953C21.189 20.7953 17.9116 24.1776 21.189 27.5599C24.4665 30.9421 40.4442 27.3907 40.4442 27.3907C40.4442 27.3907 42.8118 22.7266 38.9966 19.4154C35.1814 16.1042 26.2861 17.1324 26.1711 17.1324C26.0561 17.1324 21.189 20.7953 21.189 20.7953Z" fill="#823F0E"/>
<path d="M20.227 31.4461C21.6877 31.4461 22.8719 30.2619 22.8719 28.8012C22.8719 27.3404 21.6877 26.1562 20.227 26.1562C18.7662 26.1562 17.582 27.3404 17.582 28.8012C17.582 30.2619 18.7662 31.4461 20.227 31.4461Z" fill="#CE8282"/>
<path d="M39.8715 31.4461C41.3322 31.4461 42.5164 30.2619 42.5164 28.8012C42.5164 27.3404 41.3322 26.1562 39.8715 26.1562C38.4107 26.1562 37.2266 27.3404 37.2266 28.8012C37.2266 30.2619 38.4107 31.4461 39.8715 31.4461Z" fill="#CE8282"/>
<path d="M33.4667 38.4038L33.0203 32.5322L28.4305 33.1613L27.6797 41.7523C28.824 41.6269 29.9297 41.2644 30.9261 40.6879C31.9225 40.1113 32.7878 39.3334 33.4667 38.4038Z" fill="#D19582"/>
<path d="M20.9678 26.2817C20.8916 27.3599 20.9359 28.4433 21.0997 29.5117C21.4075 32.2886 22.7367 34.7069 25.2531 36.0496C27.7695 37.3924 31.2228 37.8727 33.9117 36.7667C34.9266 36.3712 35.8504 35.7732 36.6267 35.0091C37.4029 34.2451 38.0155 33.3309 38.427 32.3224C39.3639 29.9548 39.374 26.9717 39.2489 24.435C38.7788 15.0458 31.1315 15.1845 31.1315 15.1845C31.1315 15.1845 20.9306 14.3998 20.9678 26.2817Z" fill="#E5B5A3"/>
<path d="M27.6781 41.7484L27.3398 45.5297C27.3398 45.5297 27.4751 47.417 30.5327 47.7789C33.5903 48.1408 33.9522 44.9446 33.9522 44.9446L33.455 38.4033C32.7768 39.3311 31.913 40.1077 30.9184 40.6836C29.9239 41.2594 28.8204 41.6221 27.6781 41.7484Z" fill="#E5B5A3"/>
<path d="M26.3836 28.1727C26.3836 28.6902 26.1739 29.1096 25.9135 29.1096C25.6531 29.1096 25.4434 28.6902 25.4434 28.1727C25.4434 27.6552 25.6531 27.2324 25.9135 27.2324C26.1739 27.2324 26.3836 27.6552 26.3836 28.1727Z" fill="#823F0E"/>
<path d="M35.0789 28.3309C35.0789 28.8484 34.8659 29.2712 34.6088 29.2712C34.3517 29.2712 34.1387 28.8484 34.1387 28.3309C34.1387 27.8134 34.3484 27.3906 34.6088 27.3906C34.8692 27.3906 35.0789 27.8134 35.0789 28.3309Z" fill="#823F0E"/>
<path d="M30.195 28.8115L29.6471 29.1497C29.4848 29.2614 29.3089 29.4169 29.2886 29.5286C29.2886 29.5759 29.3089 29.63 29.39 29.6977C29.4538 29.7616 29.5313 29.8102 29.6167 29.8397C29.7149 29.8627 29.8168 29.8656 29.9162 29.8482C30.0156 29.8307 30.1105 29.7933 30.195 29.7383C30.1293 29.839 30.0371 29.9198 29.9285 29.9717C29.8199 30.0236 29.6992 30.0446 29.5795 30.0325C29.455 30.0133 29.3381 29.9607 29.2412 29.8803C29.1793 29.8395 29.1288 29.7837 29.0945 29.718C29.0602 29.6523 29.0432 29.579 29.0451 29.5049C29.0713 29.3695 29.1473 29.2488 29.2581 29.1667C29.3505 29.0944 29.4516 29.0342 29.5592 28.9874C29.7595 28.8929 29.9746 28.8334 30.195 28.8115Z" fill="#823F0E"/>
<path d="M28.8906 31.0029C29.0948 31.1338 29.3098 31.247 29.5333 31.3411C29.747 31.4353 29.9764 31.4892 30.2097 31.5001C30.4367 31.5158 30.6638 31.4727 30.8692 31.3749C31.088 31.2722 31.2945 31.1451 31.4848 30.9961C31.4188 31.1045 31.3441 31.2074 31.2616 31.3039C31.1722 31.3987 31.0711 31.4817 30.9606 31.5508C30.7344 31.6993 30.4662 31.7705 30.1962 31.7537C29.9359 31.7354 29.6833 31.6584 29.4571 31.5283C29.231 31.3982 29.0373 31.2186 28.8906 31.0029Z" fill="#823F0E"/>
<path d="M25.4427 31.6832C25.9881 31.6832 26.4303 31.2411 26.4303 30.6956C26.4303 30.1502 25.9881 29.708 25.4427 29.708C24.8973 29.708 24.4551 30.1502 24.4551 30.6956C24.4551 31.2411 24.8973 31.6832 25.4427 31.6832Z" fill="#CE8282"/>
<path d="M34.6068 31.9909C35.1522 31.9909 35.5944 31.5487 35.5944 31.0032C35.5944 30.4578 35.1522 30.0156 34.6068 30.0156C34.0613 30.0156 33.6191 30.4578 33.6191 31.0032C33.6191 31.5487 34.0613 31.9909 34.6068 31.9909Z" fill="#CE8282"/>
<path d="M29.3291 32.1055C29.3291 32.1055 30.7395 32.5283 31.3584 32.1055C31.3584 33.482 31.2671 34.7707 30.8477 34.6625C30.4283 34.5542 30.4418 33.8812 30.4418 33.8812C30.4418 33.8812 30.4858 35.1326 30.0157 35.0244C29.5455 34.9161 29.5252 33.482 29.5252 33.482C29.5252 33.482 29.5252 34.3716 28.9807 34.1585C28.4361 33.9454 29.3291 32.1055 29.3291 32.1055Z" fill="#823F0E"/>
<path d="M27.9766 28.3315C27.9766 28.3315 30.4524 26.61 32.3058 28.3315" stroke="white" stroke-miterlimit="10"/>
<path d="M33.1309 26.1565C33.2482 25.8359 33.4548 25.5554 33.7261 25.3481C34.0108 25.1297 34.3502 24.9939 34.707 24.9558C35.0703 24.9115 35.4383 24.9863 35.7555 25.1689C35.9057 25.2544 36.0434 25.3603 36.1647 25.4834C36.2797 25.6098 36.3775 25.7508 36.4556 25.9028C36.1174 25.8183 35.8434 25.7067 35.5661 25.6661C35.3061 25.6102 35.0387 25.5976 34.7746 25.6289C34.2033 25.721 33.6491 25.8989 33.1309 26.1565Z" fill="#823F0E"/>
<path d="M27.3512 25.9033C26.8793 25.5071 26.2756 25.303 25.6601 25.3317C25.3564 25.3477 25.0545 25.3873 24.757 25.4501C24.6014 25.4941 24.4357 25.5178 24.2733 25.5583C24.1036 25.6043 23.9306 25.6371 23.7559 25.6564C23.868 25.5149 23.9913 25.3826 24.1245 25.2607C24.2653 25.1486 24.4134 25.0457 24.5676 24.9529C24.8971 24.7721 25.2642 24.6702 25.6398 24.6553C26.0355 24.6368 26.4263 24.7485 26.7525 24.9732C26.9111 25.0786 27.0461 25.2156 27.1491 25.3757C27.2522 25.5357 27.321 25.7154 27.3512 25.9033Z" fill="#823F0E"/>
<path d="M27.9808 25.3447H20.9355V30.4722H27.9808V25.3447Z" stroke="white" stroke-miterlimit="10"/>
<path d="M39.3079 25.5107H32.3066V30.6382H39.3079V25.5107Z" stroke="white" stroke-miterlimit="10"/>
<path d="M39.7208 24.4417C39.4637 23.6942 39.3825 22.8994 39.1424 22.1384C38.9625 21.3588 38.5133 20.6678 37.8741 20.1868C37.1757 19.7872 36.3564 19.6539 35.5674 19.8114C33.4602 20.109 31.6439 21.4112 29.6349 22.1214C27.3993 22.9041 24.9704 22.9421 22.7114 22.2297C21.9184 22.0011 21.1782 21.6184 20.5332 21.1034C19.9003 20.5512 19.4355 19.8321 19.1921 19.0282C18.9486 18.2243 18.9364 17.3682 19.1567 16.5576C19.2253 16.2614 19.3725 15.9892 19.5828 15.7696C19.6895 15.6616 19.8256 15.5874 19.9741 15.5561C20.1226 15.5249 20.2771 15.5379 20.4182 15.5937C20.8546 15.8068 20.8782 16.3716 20.9526 16.7876C21.0541 17.3389 21.2165 18.1202 21.602 18.5396C21.8997 18.0492 21.7306 17.2476 21.7914 16.6895C21.8054 16.3642 21.8848 16.0449 22.0249 15.7509C22.1649 15.4569 22.3627 15.194 22.6066 14.9781C22.7201 14.883 22.8644 14.8325 23.0124 14.8361C23.3946 14.8834 23.4386 15.4077 23.4183 15.7899C23.3895 16.4718 23.4976 17.1527 23.7362 17.7922C23.699 16.6185 23.6923 15.3468 24.389 14.4099C24.4555 14.2906 24.5542 14.1925 24.6738 14.1267C24.7934 14.0609 24.9292 14.0301 25.0655 14.0379C25.3631 14.1021 25.4916 14.464 25.495 14.7684C25.453 15.0729 25.4749 15.3827 25.5593 15.6783C25.6464 15.8331 25.7747 15.9609 25.9298 16.0474C26.085 16.134 26.2611 16.1759 26.4387 16.1687C26.7889 16.1501 27.1328 16.0675 27.4533 15.9252C29.9542 14.9658 32.5692 14.336 35.2325 14.0514C36.2472 13.9601 37.3363 13.9465 38.2766 14.3896C39.1006 14.8014 39.7723 15.4648 40.1943 16.2837C40.6086 17.1033 40.8993 17.9798 41.0568 18.8846C41.4041 20.5935 41.5516 22.3369 41.4965 24.0798C41.4965 24.5398 41.625 25.9197 40.9079 25.8859C40.316 25.8622 39.8764 24.905 39.7208 24.4417Z" fill="#823F0E"/>
</g>
</svg>
