<svg width="27" height="28" viewBox="0 0 27 28" fill="none" xmlns="http://www.w3.org/2000/svg">
<g clip-path="url(#clip0_2501_826)">
<path d="M23.5373 24.4182C23.5373 25.2599 23.5426 26.0631 23.5357 26.8662C23.5304 27.4766 23.1726 27.9093 22.6184 27.9903C22.2977 28.0367 22.0293 27.9093 21.7783 27.7134C20.4477 26.6766 19.1179 25.6391 17.7782 24.6157C17.6326 24.504 17.4234 24.4285 17.2429 24.4269C15.5878 24.4127 13.9327 24.4198 12.2777 24.4182C10.5354 24.4167 9.35415 23.1966 9.35036 21.3952C9.34884 20.4827 9.35036 19.571 9.35036 18.5988C9.23664 18.679 9.15475 18.7317 9.07742 18.7923C8.01067 19.6214 6.94696 20.456 5.87642 21.2788C5.25548 21.7563 4.45636 21.5337 4.22588 20.8218C4.17053 20.6495 4.15992 20.456 4.1584 20.2711C4.15158 19.3783 4.15537 18.4855 4.15537 17.5919C4.15537 17.4857 4.15537 17.3803 4.15537 17.2348C3.77401 17.2348 3.41767 17.245 3.06133 17.2332C1.59199 17.1836 0.406213 16.1705 0.0832317 14.6837C0.031676 14.4462 0.0058982 14.1976 0.0058982 13.9545C0.00134917 10.4021 -0.0047162 6.8497 0.0058982 3.29808C0.0104472 1.69415 0.98773 0.430039 2.46086 0.0878564C2.72622 0.0264995 3.00447 0.00447394 3.27665 0.00368732C8.01522 -0.000245821 12.7538 -0.00103245 17.4916 0.00132743C19.0913 0.00211406 20.3294 0.975959 20.6744 2.50988C20.7381 2.79307 20.757 3.09277 20.7578 3.38461C20.7646 5.36691 20.7616 7.34921 20.7616 9.33151V9.70123C20.873 9.70123 20.9724 9.70123 21.0717 9.70123C22.0929 9.70123 23.115 9.69808 24.1362 9.70123C25.7724 9.70673 26.9801 10.9244 26.9892 12.622C27.0044 15.5758 27.0036 18.5295 26.9892 21.4825C26.9809 23.1895 25.7663 24.4104 24.1142 24.4182C23.9353 24.419 23.7571 24.4182 23.5373 24.4182ZM6.23352 18.2975C6.35103 18.2133 6.42079 18.1661 6.48751 18.1142C7.63689 17.219 8.78931 16.3293 9.93112 15.4247C10.2397 15.1801 10.5657 15.0684 10.9524 15.07C13.1556 15.0778 15.3589 15.0747 17.5621 15.0731C18.2521 15.0731 18.6797 14.6578 18.6804 13.9569C18.6865 10.3958 18.6865 6.83476 18.6804 3.27291C18.6789 2.58618 18.249 2.16455 17.5826 2.16455C12.7788 2.16298 7.9758 2.16298 3.17202 2.16455C2.5162 2.16455 2.08784 2.60742 2.08784 3.28786C2.08556 6.83948 2.08556 10.3903 2.08784 13.9419C2.08784 14.642 2.51014 15.0692 3.19249 15.0731C3.82632 15.0763 4.4594 15.07 5.09323 15.0755C5.81425 15.081 6.232 15.5223 6.23352 16.2727C6.23503 16.9288 6.23352 17.5848 6.23352 18.2975ZM21.4531 24.7651C21.4531 24.2751 21.45 23.8566 21.4531 23.4381C21.4591 22.7073 21.8837 22.2637 22.5835 22.2582C23.0748 22.2542 23.5668 22.2582 24.0581 22.2574C24.6722 22.255 24.9088 22.0064 24.9096 21.3622C24.9096 18.4981 24.9096 15.634 24.9096 12.7706C24.9096 12.0989 24.6692 11.8471 24.0217 11.8456C23.0293 11.8432 22.0368 11.8448 21.0436 11.8456C20.9542 11.8456 20.864 11.8542 20.7616 11.8597C20.7616 12.552 20.7624 13.208 20.7616 13.8648C20.7578 15.8424 19.4227 17.2285 17.5136 17.2379C16.1239 17.245 14.7341 17.2552 13.3452 17.2615C12.7144 17.2647 12.0836 17.2615 11.4376 17.2615C11.4293 17.4039 11.4202 17.4904 11.4202 17.5762C11.4194 18.8411 11.4171 20.1067 11.4202 21.3716C11.4217 22.0001 11.6734 22.2527 12.2905 22.2534C14.0396 22.2542 15.7888 22.2645 17.5371 22.2464C18.0072 22.2416 18.3938 22.3706 18.7646 22.6696C19.6296 23.3665 20.5144 24.0359 21.4531 24.7644V24.7651Z" fill="#4C4C4C"/>
<path d="M15.5596 7.52808H5.22266V5.41992H15.5596V7.52808Z" fill="#4C4C4C"/>
<path d="M10.361 11.8312H5.2168V9.7207H10.361V11.8312Z" fill="#4C4C4C"/>
</g>
<defs>
<clipPath id="clip0_2501_826">
<rect width="27" height="28" fill="white"/>
</clipPath>
</defs>
</svg>
