<svg width="13" height="16" viewBox="0 0 13 16" fill="none" xmlns="http://www.w3.org/2000/svg">
<g clip-path="url(#clip0_2501_1102)">
<path d="M5.60807 11.1936C5.50488 11.1936 5.43124 11.1936 5.3571 11.1936C3.88233 11.1936 2.40757 11.1796 0.933304 11.2001C0.31765 11.2086 -0.0214859 10.7868 0.00105633 10.2433C0.0741935 8.4645 0.715396 6.93563 1.99129 5.6948C2.29836 5.39624 2.47469 5.10119 2.40406 4.67389C2.38903 4.58272 2.39655 4.48654 2.40256 4.39336C2.43662 3.87138 2.36349 3.39399 2.08897 2.91609C1.72779 2.28741 1.61759 1.56556 1.60707 0.838698C1.60005 0.347777 1.93218 0.00313087 2.42059 0.00262993C5.07607 -0.000876644 7.73205 -0.000876644 10.3875 0.00262993C10.8759 0.00313087 11.2141 0.347777 11.2016 0.837195C11.1785 1.75141 10.9696 2.61553 10.4707 3.39699C10.4301 3.46011 10.4116 3.54778 10.4106 3.62392C10.4051 4.10482 10.4121 4.58622 10.4046 5.06713C10.4021 5.20889 10.4401 5.31209 10.5453 5.41027C11.189 6.0119 11.7396 6.68516 12.1288 7.48266C12.5716 8.38986 12.7945 9.34815 12.8046 10.356C12.8096 10.856 12.4679 11.1911 11.95 11.1921C10.4501 11.1951 8.95084 11.1931 7.45103 11.1931C7.37739 11.1931 7.30325 11.1931 7.20156 11.1931C7.20156 11.2833 7.20156 11.3554 7.20156 11.4276C7.20156 12.6774 7.20607 13.9267 7.19905 15.1766C7.19555 15.8073 6.56236 16.1935 6.02635 15.8984C5.7313 15.7356 5.60506 15.4746 5.60607 15.138C5.61007 13.9072 5.60757 12.6759 5.60757 11.4451C5.60757 11.3709 5.60757 11.2973 5.60757 11.1931L5.60807 11.1936ZM3.30625 1.60213C3.40394 1.99537 3.51665 2.34853 3.77513 2.63557C3.93343 2.8114 4.00607 3.01378 4.00556 3.25022C4.00306 4.01215 4.00206 4.77408 4.00607 5.53601C4.00757 5.802 3.9174 6.02091 3.72754 6.20576C3.48208 6.44571 3.23913 6.68917 2.99968 6.93563C2.43312 7.52023 2.03587 8.20551 1.80594 8.98597C1.74883 9.17984 1.71277 9.37971 1.66417 9.58961H11.1249C11.1214 9.53651 11.1229 9.49292 11.1149 9.45185C10.9626 8.6799 10.6666 7.96706 10.1661 7.35942C9.8375 6.96068 9.4648 6.5975 9.10112 6.2288C8.90024 6.02542 8.79855 5.7985 8.80156 5.51046C8.80907 4.81115 8.81308 4.11133 8.80005 3.41202C8.79404 3.08341 8.87069 2.80889 9.09411 2.55542C9.32604 2.29192 9.42372 1.95629 9.49686 1.60213H3.30625Z" fill="#003B6D"/>
<path d="M3 5.5V2.5L2.5 1L3.5 0.5L8.5 1L10.5 1.5L9.5 4L10 5.5L11 7.5L11.5 10L8 10.5L0.5 10L1 7.5L3 5.5Z" fill="#003B6D"/>
</g>
<defs>
<clipPath id="clip0_2501_1102">
<rect width="12.805" height="16" fill="white"/>
</clipPath>
</defs>
</svg>
