<svg width="28" height="28" viewBox="0 0 28 28" fill="none" xmlns="http://www.w3.org/2000/svg">
<g clip-path="url(#clip0_2501_833)">
<path d="M19.3998 15.4328C20.339 15.4328 21.2825 15.3714 22.2156 15.4442C25.4783 15.6975 27.9481 18.3702 27.9858 21.6311C28.0234 24.8973 25.5361 27.6866 22.3286 27.9741C19.0186 28.2713 16.0565 26.0228 15.5045 22.7838C15.4441 22.4297 15.4038 22.0677 15.4011 21.7091C15.3897 20.1032 15.3906 18.4964 15.3985 16.8897C15.4029 15.9798 15.9908 15.4065 16.9089 15.3995C17.7386 15.3933 18.5692 15.3986 19.3989 15.3986C19.3989 15.41 19.3989 15.4205 19.3989 15.4319L19.3998 15.4328ZM18.2003 18.2624C18.2003 19.3476 18.2003 20.4495 18.2003 21.5522C18.2003 21.7162 18.2047 21.8801 18.2152 22.044C18.2205 22.1308 18.2424 22.2167 18.2573 22.3026C18.542 24.0111 20.1138 25.2909 21.8196 25.2024C23.6814 25.1068 25.0902 23.6999 25.1953 21.8327C25.2908 20.1313 24.0169 18.4623 22.3015 18.2896C20.9628 18.1546 19.5995 18.2624 18.2003 18.2624Z" fill="#4C4C4C"/>
<path d="M8.61673 15.3994C9.45781 15.3994 10.2989 15.3915 11.14 15.402C11.9767 15.4125 12.5908 15.956 12.597 16.7721C12.611 18.6182 12.6495 20.4687 12.5505 22.3095C12.4025 25.062 10.0921 27.4945 7.36125 27.9118C3.73497 28.4658 0.534499 26.0692 0.0508793 22.4366C-0.377545 19.2231 1.94944 16.0209 5.15429 15.5317C6.29062 15.3582 7.46025 15.4029 8.61498 15.3477C8.61498 15.3652 8.61673 15.3827 8.61761 15.3994H8.61673ZM9.7443 18.2045C9.69786 18.2045 9.62427 18.2045 9.55068 18.2045C8.46866 18.2045 7.38665 18.1974 6.30464 18.2062C4.17917 18.2246 2.60127 20.0216 2.84221 22.1403C3.03583 23.8418 4.47968 25.1462 6.23192 25.2031C7.92547 25.2584 9.54717 24.0057 9.71714 22.3174C9.85206 20.9771 9.7443 19.6123 9.7443 18.2036V18.2045Z" fill="#4C4C4C"/>
<path d="M12.6089 8.42732C12.6089 9.30216 12.6115 10.177 12.6089 11.0518C12.6054 12.031 12.0359 12.6113 11.0616 12.6078C9.26997 12.6008 7.47392 12.6534 5.68663 12.549C2.93122 12.3886 0.535029 10.1095 0.103101 7.37366C-0.435714 3.96023 1.67925 0.86762 5.05407 0.136545C8.65931 -0.645372 12.2777 2.02647 12.5572 5.70727C12.6255 6.60928 12.5677 7.52093 12.5677 8.4282C12.5817 8.4282 12.5957 8.4282 12.6089 8.4282V8.42732ZM9.80528 9.74483C9.80528 8.6193 9.81404 7.47359 9.80353 6.32789C9.78425 4.17061 8.00135 2.59888 5.86273 2.8417C4.15692 3.03542 2.83923 4.51598 2.80857 6.27267C2.77966 7.95747 4.03952 9.56075 5.70415 9.71941C7.04462 9.8474 8.40611 9.74483 9.80616 9.74483H9.80528Z" fill="#4C4C4C"/>
<path d="M19.5776 12.6097C18.7033 12.6097 17.8289 12.6124 16.9545 12.6097C15.975 12.6062 15.3941 12.0364 15.3985 11.0634C15.4055 9.27081 15.3512 7.47293 15.4563 5.68556C15.6184 2.92431 17.8937 0.52859 20.6272 0.0973084C24.0537 -0.443547 27.1517 1.68744 27.871 5.08072C28.6332 8.67385 25.9602 12.281 22.298 12.558C21.3965 12.6264 20.4853 12.5685 19.5785 12.5685C19.5785 12.5826 19.5785 12.5966 19.5785 12.6106L19.5776 12.6097ZM18.2573 9.80465C19.3989 9.80465 20.5554 9.81342 21.7119 9.8029C23.8207 9.78274 25.3968 7.98836 25.1629 5.88805C24.971 4.16556 23.5298 2.86032 21.7583 2.80509C20.0718 2.7525 18.4509 4.01478 18.2836 5.70397C18.1504 7.0434 18.2564 8.40737 18.2564 9.80553L18.2573 9.80465Z" fill="#4C4C4C"/>
</g>
<defs>
<clipPath id="clip0_2501_833">
<rect width="28" height="28" fill="white"/>
</clipPath>
</defs>
</svg>
