<svg width="16" height="16" viewBox="0 0 16 16" fill="none" xmlns="http://www.w3.org/2000/svg">
<g clip-path="url(#clip0_2501_1781)">
<path d="M16.0003 15.1768C15.9446 15.3094 15.9058 15.4542 15.8299 15.5717C15.6565 15.8404 15.4131 15.9904 15.1036 15.9945C15.0618 15.9949 15.0205 15.9968 14.9787 15.9968C10.3287 15.9968 5.6786 15.9954 1.02854 15.9995C0.615624 15.9995 0.292123 15.8496 0.105278 15.4446C0.0403243 15.3039 0.00784775 15.1316 0.00658243 14.9734C-0.00185305 13.8788 -0.00143128 12.7842 0.00363001 11.6896C0.00616065 11.0932 0.388288 10.6736 0.937438 10.6713C2.39003 10.6654 3.84304 10.6681 5.29563 10.6732C5.35805 10.6732 5.43439 10.7161 5.48037 10.765C5.8511 11.1608 6.21636 11.5635 6.58373 11.9634C7.45047 12.9081 8.54329 12.9117 9.40961 11.9739C9.77782 11.5749 10.1431 11.1727 10.5176 10.7806C10.5762 10.7193 10.677 10.6741 10.7584 10.6736C12.1229 10.6672 13.4869 10.6691 14.8513 10.6691C15.5422 10.6691 15.7388 10.8089 16.0003 11.4862V15.1768ZM14.174 13.3377C13.8378 13.3272 13.5506 13.6188 13.5396 13.983C13.5287 14.3382 13.8112 14.6585 14.1428 14.6663C14.473 14.6741 14.7632 14.3692 14.7695 14.0086C14.7754 13.6558 14.5025 13.3482 14.1744 13.3377H14.174ZM11.699 14.6663C12.0297 14.6627 12.3152 14.3459 12.3085 13.9899C12.3017 13.6279 12.0153 13.3304 11.68 13.3377C11.3489 13.345 11.0803 13.643 11.0811 14.0018C11.0819 14.3638 11.3666 14.67 11.699 14.6663Z" fill="#4C4C4C"/>
<path d="M9.8448 5.32838C10.3024 5.32838 10.739 5.3261 11.1759 5.3293C11.5867 5.33204 11.998 5.33204 12.4088 5.35032C12.6479 5.36083 12.7926 5.53176 12.8778 5.7612C12.9642 5.99429 12.9453 6.21367 12.7858 6.40745C12.7441 6.45772 12.7023 6.50845 12.6585 6.55599C11.278 8.05233 9.8971 9.54867 8.51621 11.0446C8.15307 11.4381 7.84686 11.4372 7.4816 11.0414C6.09354 9.53725 4.70506 8.03314 3.31743 6.52856C3.03484 6.22235 2.99857 5.95041 3.18836 5.6218C3.32333 5.38825 3.53253 5.32884 3.76662 5.32884C4.50093 5.32793 5.23523 5.32884 5.96912 5.32884C6.02522 5.32884 6.08131 5.32884 6.15512 5.32884C6.15512 5.24703 6.15512 5.18122 6.15512 5.1154C6.15512 3.6707 6.15512 2.22646 6.15512 0.781764C6.15512 0.257084 6.38921 0.0011426 6.87003 0.000685558C7.62501 -0.000228519 8.37998 -0.000228519 9.13496 0.000685558C9.60777 0.0011426 9.84438 0.258455 9.84438 0.770338C9.84438 2.21504 9.84438 3.65928 9.84438 5.10398C9.84438 5.1707 9.84438 5.23743 9.84438 5.32884L9.8448 5.32838Z" fill="#4C4C4C"/>
</g>
<defs>
<clipPath id="clip0_2501_1781">
<rect width="16" height="16" fill="white"/>
</clipPath>
</defs>
</svg>
