<svg width="15" height="16" viewBox="0 0 15 16" fill="none" xmlns="http://www.w3.org/2000/svg">
<g clip-path="url(#clip0_2501_1778)">
<path d="M14.9332 5.125C14.8428 5.25094 14.7626 5.3875 14.6605 5.50156C13.3818 6.92937 12.0991 8.35312 10.8195 9.78C10.6833 9.93187 10.534 10.0331 10.3307 9.98906C10.0921 9.9375 9.95446 9.735 9.95359 9.43531C9.95184 8.8 9.95301 8.16469 9.95301 7.52937C9.95301 7.47281 9.95301 7.41625 9.95301 7.36812C9.93463 7.35375 9.92734 7.34312 9.91946 7.3425C8.34038 7.2325 6.91092 7.61719 5.72267 8.79906C5.27642 9.24281 4.92088 9.75937 4.64117 10.3381C4.50059 10.6287 4.24363 10.7328 3.99834 10.6053C3.84201 10.5241 3.7408 10.3881 3.73759 10.2025C3.72009 9.21812 3.69676 8.23 3.99688 7.28C4.77184 4.82625 6.33867 3.31344 8.70992 2.78281C9.06401 2.70344 9.43326 2.70187 9.79551 2.66469C9.84246 2.66 9.89001 2.65906 9.9533 2.65562V2.47969C9.9533 1.87562 9.96176 1.27125 9.9498 0.6675C9.94367 0.361875 10.0262 0.130937 10.296 0C10.3739 0 10.4515 0 10.5293 0C10.6402 0.089375 10.7644 0.164687 10.8598 0.270312C12.1297 1.67687 13.3964 3.08656 14.6611 4.49875C14.7632 4.61281 14.8431 4.74906 14.9335 4.875V5.125H14.9332Z" fill="#4C4C4C"/>
<path d="M0 4.40542C0.0746667 4.17667 0.121042 3.93167 0.228958 3.72261C0.578375 3.04449 1.12875 2.68574 1.85267 2.6673C2.46954 2.65167 3.087 2.6598 3.70417 2.66511C4.0915 2.66824 4.35837 2.95636 4.35225 3.34792C4.34612 3.72855 4.07342 3.99855 3.69075 3.99917C3.10275 4.00042 2.51475 3.99886 1.92675 3.9998C1.498 4.00042 1.24833 4.26636 1.24804 4.72761C1.24717 7.79949 1.24717 10.8717 1.24804 13.9435C1.24804 14.3967 1.49596 14.6632 1.91742 14.6632C5.61546 14.6642 9.31379 14.6642 13.0118 14.6632C13.4412 14.6632 13.6862 14.3976 13.6865 13.9332C13.6876 12.2045 13.6876 10.476 13.6862 8.7473C13.6862 8.51136 13.7425 8.30511 13.9186 8.15074C14.24 7.86949 14.716 7.99511 14.882 8.40417C14.8992 8.44636 14.9164 8.48855 14.9339 8.53074V14.2495C14.9246 14.2782 14.912 14.306 14.9065 14.3354C14.7513 15.1485 14.3001 15.6754 13.5654 15.9267C13.4788 15.9564 13.389 15.9754 13.3006 15.9995H1.63333C1.61146 15.9901 1.59017 15.9764 1.56771 15.9723C0.992833 15.8639 0.546292 15.5445 0.262208 15.0014C0.141458 14.7704 0.0854583 14.501 0 14.2492C0 10.9679 0 7.68667 0 4.40542Z" fill="#4C4C4C"/>
</g>
<defs>
<clipPath id="clip0_2501_1778">
<rect width="14.9333" height="16" fill="white"/>
</clipPath>
</defs>
</svg>
