<svg width="27" height="20" viewBox="0 0 27 20" fill="none" xmlns="http://www.w3.org/2000/svg">
<g clip-path="url(#clip0_2501_821)">
<path d="M10.7859 4.00217C7.9177 4.00217 5.04951 4.00384 2.18133 4.00134C1.10069 4.0005 0.311768 3.42626 0.0657062 2.47225C-0.244619 1.27285 0.651689 0.072615 1.90483 0.0100159C2.00968 0.00500793 2.11538 0.00333862 2.22107 0.00333862C7.94645 0.00333862 13.6718 0.00584258 19.398 0C19.9688 0 20.4838 0.118521 20.9184 0.497454C21.5509 1.05 21.7699 1.90969 21.4807 2.68842C21.1864 3.47884 20.4567 3.98548 19.5486 3.99883C18.6523 4.01219 17.7559 4.00217 16.8596 4.00217C14.8353 4.00217 12.8102 4.00217 10.7859 4.00217Z" fill="#003B6D"/>
<path d="M10.8131 8.00134C13.7024 8.00134 16.5918 7.998 19.4811 8.00301C20.6725 8.00468 21.5637 8.81346 21.6043 9.9102C21.6449 11.0211 20.8112 11.9125 19.6536 11.9943C19.5589 12.001 19.4642 11.9993 19.3686 11.9993C13.6534 11.9993 7.93816 11.9993 2.22293 11.9993C1.15159 11.9993 0.358441 11.466 0.0895487 10.5721C-0.296878 9.28754 0.640017 8.02054 2.01915 8.00718C3.89632 7.98799 5.77265 8.00217 7.64982 8.00134C8.70425 8.00134 9.75868 8.00134 10.8131 8.00134Z" fill="#003B6D"/>
<path d="M6.7335 19.9955C5.20471 19.9955 3.67591 19.9988 2.14711 19.9947C1.1468 19.9913 0.3638 19.4488 0.0940625 18.5874C-0.310121 17.2971 0.635229 16.0159 2.03043 16.0025C3.92789 15.985 5.82536 15.9975 7.72367 15.9975C8.99964 15.9975 10.2748 15.9858 11.5507 16.005C12.5088 16.02 13.2664 16.6752 13.4634 17.6084C13.6486 18.4856 13.2038 19.4071 12.3591 19.776C12.042 19.9145 11.6691 19.9805 11.3207 19.9855C9.79279 20.0072 8.26315 19.9947 6.73519 19.9947L6.7335 19.9955Z" fill="#003B6D"/>
<path d="M27.0003 2.00639C26.9961 3.11564 26.0795 4.0129 24.9659 3.99954C23.8624 3.98619 22.961 3.0906 22.9551 2.00388C22.9492 0.901303 23.8599 0.00404874 24.9836 0.00488339C26.1133 0.00571805 27.0046 0.890452 27.0003 2.00639Z" fill="#003B6D"/>
</g>
<defs>
<clipPath id="clip0_2501_821">
<rect width="27" height="20" fill="white"/>
</clipPath>
</defs>
</svg>
