<svg width="22" height="28" viewBox="0 0 22 28" fill="none" xmlns="http://www.w3.org/2000/svg">
<g clip-path="url(#clip0_2501_830)">
<path d="M9.6351 19.5888C9.4578 19.5888 9.33129 19.5888 9.20391 19.5888C6.67015 19.5888 4.13639 19.5643 1.60349 19.6002C0.545747 19.6151 -0.0369145 18.877 0.00181486 17.9258C0.12747 14.8129 1.22911 12.1374 3.42119 9.9659C3.94877 9.44343 4.25172 8.92708 4.13037 8.17931C4.10455 8.01976 4.11746 7.85144 4.12778 7.68838C4.18631 6.77492 4.06065 5.93948 3.58901 5.10316C2.96848 4.00297 2.77914 2.73973 2.76107 1.46772C2.74902 0.60861 3.31963 0.00547902 4.15877 0.00460238C8.72109 -0.00153413 13.2843 -0.00153413 17.8466 0.00460238C18.6857 0.00547902 19.2667 0.60861 19.2451 1.46509C19.2056 3.06497 18.8467 4.57718 17.9895 5.94474C17.9197 6.0552 17.8879 6.20861 17.8862 6.34186C17.8767 7.18344 17.8888 8.02589 17.8758 8.86747C17.8715 9.11556 17.937 9.29615 18.1177 9.46797C19.2236 10.5208 20.1695 11.699 20.8382 13.0946C21.599 14.6822 21.982 16.3593 21.9992 18.1231C22.0078 18.998 21.4209 19.5844 20.531 19.5862C17.9542 19.5915 15.3782 19.5879 12.8014 19.5879C12.6749 19.5879 12.5475 19.5879 12.3728 19.5879C12.3728 19.7457 12.3728 19.872 12.3728 19.9982C12.3728 22.1854 12.3806 24.3718 12.3685 26.559C12.3625 27.6627 11.2746 28.3386 10.3537 27.8223C9.84682 27.5373 9.62994 27.0806 9.63166 26.4915C9.63854 24.3376 9.63424 22.1828 9.63424 20.0289C9.63424 19.8992 9.63424 19.7703 9.63424 19.5879L9.6351 19.5888ZM5.6804 2.80373C5.84823 3.49189 6.04187 4.10992 6.48597 4.61224C6.75794 4.91994 6.88273 5.27411 6.88187 5.68788C6.87757 7.02126 6.87585 8.35463 6.88273 9.68801C6.88531 10.1535 6.7304 10.5366 6.40421 10.8601C5.98249 11.28 5.56507 11.706 5.15368 12.1374C4.18028 13.1604 3.49779 14.3596 3.10275 15.7255C3.00463 16.0647 2.94266 16.4145 2.85918 16.7818H19.1135C19.1074 16.6889 19.11 16.6126 19.0963 16.5407C18.8346 15.1898 18.326 13.9424 17.4662 12.879C16.9016 12.1812 16.2613 11.5456 15.6364 10.9004C15.2913 10.5445 15.1166 10.1474 15.1218 9.6433C15.1347 8.41951 15.1416 7.19483 15.1192 5.97104C15.1088 5.39596 15.2405 4.91556 15.6244 4.47198C16.0229 4.01086 16.1907 3.42351 16.3163 2.80373H5.6804Z" fill="#4C4C4C"/>
</g>
<defs>
<clipPath id="clip0_2501_830">
<rect width="22" height="28" fill="white"/>
</clipPath>
</defs>
</svg>
