<svg width="32" height="32" viewBox="0 0 32 32" fill="none" xmlns="http://www.w3.org/2000/svg">
<g clip-path="url(#clip0_2501_1775)">
<path d="M32 15.0577V16.9331C31.9805 17.0435 31.9578 17.1531 31.9429 17.2635C31.867 17.8406 31.8223 18.424 31.7135 18.9956C31.1077 22.1833 29.6573 24.938 27.3772 27.2408C24.9867 29.6557 22.114 31.1756 18.7576 31.7542C18.1549 31.8584 17.5444 31.9194 16.9377 32.0009H15.0631C14.6615 31.9531 14.2584 31.9132 13.8584 31.8568C11.9478 31.5867 10.1373 31.0072 8.43092 30.1012C8.31038 30.037 8.12957 30.0237 7.99572 30.059C6.61966 30.4199 5.24673 30.7934 3.87459 31.1693C2.87425 31.4426 1.87547 31.7237 0.875912 32.0017H0.813293C0.624652 31.7973 0.450101 31.578 0.24424 31.394C0.0665581 31.2351 0.0282038 31.0871 0.0931713 30.8522C0.697447 28.6566 1.27902 26.4547 1.89034 24.2606C1.9874 23.913 1.95218 23.6397 1.79015 23.3226C0.11274 20.0378 -0.388997 16.5737 0.298249 12.9529C0.947924 9.52876 2.56507 6.61589 5.13167 4.26681C8.83951 0.87395 13.226 -0.479906 18.2003 0.149649C21.361 0.549776 24.146 1.84725 26.5349 3.95673C29.3481 6.44128 31.1077 9.53267 31.7542 13.2403C31.8591 13.8417 31.9194 14.4509 32 15.0569V15.0577Z" fill="#E20015"/>
<path d="M16.3123 26C14.9383 26 13.696 25.7669 12.5855 25.3007C11.4939 24.8345 10.6281 24.1632 9.98814 23.2867C9.3482 22.4103 9.01882 21.3753 9 20.1818H13.2349C13.2914 20.9837 13.5737 21.6177 14.0819 22.0839C14.6089 22.5501 15.3241 22.7832 16.2276 22.7832C17.1498 22.7832 17.8745 22.5688 18.4015 22.1399C18.9285 21.6923 19.192 21.1142 19.192 20.4056C19.192 19.8275 19.0132 19.352 18.6556 18.979C18.2979 18.6061 17.8462 18.317 17.3004 18.1119C16.7734 17.8881 16.0393 17.6457 15.0982 17.3846C13.8184 17.0117 12.7738 16.648 11.9644 16.2937C11.1739 15.9207 10.4869 15.3706 9.90344 14.6434C9.33879 13.8974 9.05647 12.9091 9.05647 11.6783C9.05647 10.5221 9.3482 9.51515 9.93168 8.65734C10.5152 7.79953 11.3339 7.14685 12.3879 6.6993C13.4419 6.2331 14.6465 6 16.0017 6C18.0344 6 19.6813 6.49417 20.9424 7.48252C22.2223 8.45221 22.9281 9.81352 23.0599 11.5664H18.712C18.6744 10.8951 18.3826 10.345 17.8368 9.91608C17.3098 9.46853 16.604 9.24475 15.7194 9.24475C14.9477 9.24475 14.3266 9.44056 13.856 9.83217C13.4043 10.2238 13.1784 10.7925 13.1784 11.5385C13.1784 12.0606 13.3478 12.4988 13.6866 12.8531C14.0442 13.1888 14.4771 13.4685 14.9853 13.6923C15.5123 13.8974 16.2464 14.1399 17.1875 14.4196C18.4673 14.7925 19.512 15.1655 20.3213 15.5385C21.1306 15.9114 21.827 16.4709 22.4105 17.2168C22.994 17.9627 23.2857 18.9417 23.2857 20.1538C23.2857 21.1981 23.0128 22.1678 22.467 23.0629C21.9211 23.958 21.1212 24.676 20.0672 25.2168C19.0132 25.7389 17.7615 26 16.3123 26Z" fill="white"/>
</g>
<defs>
<clipPath id="clip0_2501_1775">
<rect width="32" height="32" fill="white"/>
</clipPath>
</defs>
</svg>
