<svg width="122" height="36" viewBox="0 0 122 36" fill="none" xmlns="http://www.w3.org/2000/svg">
<path fill-rule="evenodd" clip-rule="evenodd" d="M97.0466 36.0049C95.5929 34.2802 94.2952 32.925 93.2029 31.422C91.5192 29.106 89.3839 28.2929 86.5175 28.3093C64.4327 28.3996 42.3561 28.3586 20.2795 28.3504C18.2674 28.3504 16.2552 28.3996 14.2512 28.3257C5.93962 28.0301 -0.113371 21.8539 0.00161079 13.8298C0.10838 5.94526 6.1778 0.048311 14.4565 0.0318849C45.5099 -0.00918015 76.5633 -0.0173931 107.617 0.048311C115.945 0.0647371 122.293 6.68443 121.99 14.7332C121.735 21.6157 116.068 27.8822 108.84 28.1204C104.364 28.2682 101.523 30.0258 99.1984 33.4342C98.6728 34.2062 97.9993 34.8715 97.0466 36.0049ZM96.6934 31.6191C97.4737 30.9785 97.8022 30.8061 97.9911 30.535C100.373 27.0527 103.56 25.1966 107.888 25.5579C108.348 25.599 108.824 25.4922 109.292 25.4183C115.14 24.4574 119.246 19.5953 119.115 13.8051C118.992 8.1792 114.803 3.54706 109.07 2.75861C107.789 2.58613 106.475 2.60256 105.186 2.60256C75.6791 2.59708 46.1752 2.59708 16.674 2.60256C15.3846 2.60256 14.0705 2.57792 12.7893 2.75039C7.09766 3.5142 2.84331 8.18741 2.68727 13.7723C2.52301 19.4885 6.71165 24.4902 12.5182 25.3855C14.0212 25.6236 15.5735 25.599 17.1093 25.599C39.1695 25.6154 61.2379 25.6976 83.3062 25.5415C88.7761 25.5087 93.7614 25.7961 96.6934 31.6191Z" fill="white"/>
<path d="M17.4321 10.7326C18.1768 11.3568 18.6422 12.1918 18.8284 13.2376H16.3973C16.2987 12.7448 16.077 12.3505 15.732 12.0549C15.3871 11.7592 14.9381 11.6114 14.3851 11.6114C13.9416 11.6114 13.5994 11.7154 13.3585 11.9235C13.1121 12.137 12.9889 12.4217 12.9889 12.7776C12.9889 13.0569 13.0875 13.2841 13.2846 13.4593C13.4817 13.629 13.7253 13.7632 14.0155 13.8617C14.3112 13.9603 14.7355 14.078 15.2885 14.2149C16.066 14.3846 16.6957 14.5653 17.1775 14.757C17.6648 14.9486 18.0837 15.2497 18.4341 15.6604C18.7845 16.071 18.9598 16.6268 18.9598 17.3276C18.9598 18.1982 18.6175 18.9045 17.9331 19.4466C17.2542 19.9887 16.3371 20.2597 15.1818 20.2597C13.8513 20.2597 12.789 19.9613 11.9951 19.3645C11.1957 18.7676 10.7084 17.9162 10.5332 16.8102H13.0217C13.082 17.3139 13.3037 17.7109 13.687 18.0011C14.0648 18.2913 14.5631 18.4364 15.1818 18.4364C15.6253 18.4364 15.962 18.3269 16.192 18.1079C16.4274 17.8943 16.5451 17.6151 16.5451 17.2701C16.5451 16.9745 16.4438 16.7363 16.2412 16.5556C16.0387 16.3694 15.7868 16.2271 15.4857 16.1285C15.1845 16.03 14.7574 15.9123 14.2044 15.7754C13.4433 15.6056 12.8246 15.4304 12.3483 15.2497C11.8774 15.0745 11.4722 14.7898 11.1328 14.3956C10.7988 14.0014 10.6318 13.462 10.6318 12.7776C10.6318 11.8906 10.9685 11.1706 11.642 10.6176C12.3154 10.0646 13.249 9.78809 14.4426 9.78809C15.6855 9.78809 16.682 10.1029 17.4321 10.7326Z" fill="white"/>
<path fill-rule="evenodd" clip-rule="evenodd" d="M30.4007 15.5208H22.9187C22.957 16.4297 23.2034 17.1004 23.6579 17.533C24.1123 17.96 24.6763 18.1736 25.3497 18.1736C25.952 18.1736 26.453 18.0257 26.8527 17.7301C27.2524 17.4344 27.5098 17.0347 27.6247 16.531H30.3679C30.231 17.2482 29.9408 17.8889 29.4973 18.4528C29.0593 19.0168 28.4926 19.4575 27.7972 19.7751C27.1018 20.0982 26.3298 20.2597 25.4811 20.2597C24.4846 20.2597 23.6004 20.0461 22.8283 19.6191C22.0563 19.1975 21.454 18.5924 21.0215 17.804C20.5944 17.021 20.3809 16.0929 20.3809 15.0198C20.3809 13.9521 20.5944 13.0213 21.0215 12.2274C21.454 11.4389 22.0563 10.8339 22.8283 10.4123C23.6004 9.99615 24.4846 9.78809 25.4811 9.78809C26.4886 9.78809 27.3701 9.99615 28.1257 10.4123C28.8813 10.8339 29.4645 11.4088 29.8751 12.137C30.2912 12.8707 30.4993 13.703 30.4993 14.6338C30.4993 14.8911 30.4664 15.1868 30.4007 15.5208ZM27.2223 12.482C26.7514 12.0494 26.171 11.8331 25.4811 11.8331C24.7803 11.8331 24.1917 12.0494 23.7153 12.482C23.2335 12.909 22.968 13.5414 22.9187 14.3792H27.8793C27.9177 13.5414 27.6987 12.909 27.2223 12.482Z" fill="white"/>
<path d="M41.2428 10.9295C41.9436 11.707 42.294 12.7939 42.294 14.1901V20.1281H39.7151V14.4858C39.7151 13.6754 39.5043 13.0457 39.0827 12.5968C38.6666 12.1478 38.0972 11.9233 37.3744 11.9233C36.6353 11.9233 36.0439 12.1642 35.6004 12.646C35.1569 13.1224 34.9352 13.8095 34.9352 14.7075V20.1281H32.3398V9.91932H34.9352V11.9644C35.2089 11.2745 35.6552 10.7379 36.2739 10.3546C36.8926 9.96586 37.6099 9.77148 38.4257 9.77148C39.6029 9.77148 40.5419 10.1575 41.2428 10.9295Z" fill="white"/>
<path d="M50.0307 17.8941V20.128H48.6673C47.5284 20.128 46.6524 19.8515 46.0391 19.2985C45.4314 18.7455 45.1275 17.8229 45.1275 16.5307V12.1121H43.7148V9.91926H45.1275V7.38965H47.731V9.91926H50.0142V12.1121H47.731V16.5718C47.731 17.0646 47.8296 17.4095 48.0267 17.6066C48.2238 17.7983 48.5551 17.8941 49.0205 17.8941H50.0307Z" fill="white"/>
<path d="M52.0412 5.96063C52.3368 5.69781 52.7228 5.56641 53.1992 5.56641C53.681 5.56641 54.0698 5.69781 54.3654 5.96063C54.6611 6.22892 54.8089 6.57113 54.8089 6.98726C54.8089 7.39243 54.6611 7.72643 54.3654 7.98925C54.0698 8.25754 53.681 8.39168 53.1992 8.39168C52.7228 8.39168 52.3368 8.25754 52.0412 7.98925C51.7455 7.72643 51.5977 7.39243 51.5977 6.98726C51.5977 6.57113 51.7455 6.22892 52.0412 5.96063ZM54.4886 9.9193V20.1281H51.8933V9.9193H54.4886Z" fill="white"/>
<path d="M72.5254 10.9453C73.2481 11.7119 73.6095 12.8015 73.6095 14.2141V20.1275H71.507V14.4359C71.507 13.5488 71.2852 12.8617 70.8417 12.3744C70.3982 11.8926 69.7905 11.6516 69.0184 11.6516C68.1917 11.6516 67.5374 11.9117 67.0555 12.4319C66.5682 12.9575 66.3246 13.7213 66.3246 14.7233V20.1275H64.222V14.4359C64.222 13.5488 64.0003 12.8617 63.5568 12.3744C63.1188 11.8926 62.511 11.6516 61.7335 11.6516C60.9122 11.6516 60.2579 11.9117 59.7706 12.4319C59.2888 12.9575 59.0478 13.7213 59.0478 14.7233V20.1275H56.9453V9.97618H59.0478V12.0951C59.3052 11.356 59.735 10.7893 60.3373 10.395C60.9396 10.0008 61.6459 9.80371 62.4562 9.80371C63.3049 9.80371 64.0386 10.0145 64.6573 10.4361C65.276 10.8522 65.7278 11.4545 66.0125 12.243C66.3081 11.4764 66.7818 10.8796 67.4333 10.4525C68.0849 10.02 68.8213 9.80371 69.6426 9.80371C70.8472 9.80371 71.8081 10.1842 72.5254 10.9453Z" fill="white"/>
<path fill-rule="evenodd" clip-rule="evenodd" d="M85.4193 15.4634H77.6005C77.6389 16.5092 77.9291 17.284 78.4711 17.7877C79.0132 18.2914 79.6839 18.5433 80.4833 18.5433C81.1787 18.5433 81.77 18.3653 82.2573 18.0094C82.7446 17.6535 83.043 17.1799 83.1525 16.5886H85.4029C85.266 17.3004 84.9813 17.9328 84.5487 18.4858C84.1217 19.0388 83.5632 19.4741 82.8733 19.7917C82.1889 20.1038 81.4223 20.2598 80.5736 20.2598C79.5881 20.2598 78.7175 20.049 77.9619 19.6274C77.2063 19.2113 76.615 18.6117 76.1879 17.8288C75.7553 17.0403 75.5391 16.1122 75.5391 15.0445C75.5391 13.9878 75.7553 13.0652 76.1879 12.2768C76.615 11.4883 77.2063 10.886 77.9619 10.4699C78.7175 10.0538 79.5881 9.8457 80.5736 9.8457C81.5647 9.8457 82.4325 10.051 83.1772 10.4617C83.9218 10.8723 84.494 11.4363 84.8937 12.1536C85.2934 12.8763 85.4932 13.6784 85.4932 14.56C85.4932 14.9049 85.4686 15.2061 85.4193 15.4634ZM83.0293 12.8352C82.7775 12.3917 82.4353 12.0605 82.0027 11.8415C81.5647 11.6279 81.0883 11.5212 80.5736 11.5212C79.7469 11.5212 79.057 11.773 78.504 12.2768C77.951 12.7805 77.6498 13.5251 77.6005 14.5107H83.3743C83.3962 13.8427 83.2812 13.2842 83.0293 12.8352Z" fill="white"/>
<path d="M92.6229 18.3049V20.1282H91.3335C90.2548 20.1282 89.4363 19.8681 88.8778 19.3479C88.3193 18.8223 88.04 17.9517 88.04 16.7362V11.7591H86.5781V9.97687H88.04V7.44727H90.159V9.97687H92.6065V11.7591H90.159V16.7773C90.159 17.3522 90.2658 17.7491 90.4793 17.9681C90.6928 18.1926 91.0706 18.3049 91.6127 18.3049H92.6229Z" fill="white"/>
<path fill-rule="evenodd" clip-rule="evenodd" d="M103.964 15.4634H96.1454C96.1838 16.5092 96.4712 17.284 97.0078 17.7877C97.5499 18.2914 98.2206 18.5433 99.02 18.5433C99.7208 18.5433 100.315 18.3653 100.802 18.0094C101.284 17.6535 101.58 17.1799 101.689 16.5886H103.94C103.808 17.3004 103.526 17.9328 103.094 18.4858C102.661 19.0388 102.103 19.4741 101.418 19.7917C100.728 20.1038 99.959 20.2598 99.1104 20.2598C98.1303 20.2598 97.2624 20.049 96.5068 19.6274C95.7512 19.2113 95.1572 18.6117 94.7246 17.8288C94.2975 17.0403 94.084 16.1122 94.084 15.0445C94.084 13.9878 94.2975 13.0652 94.7246 12.2768C95.1572 11.4883 95.7512 10.886 96.5068 10.4699C97.2624 10.0538 98.1303 9.8457 99.1104 9.8457C100.107 9.8457 100.977 10.051 101.722 10.4617C102.467 10.8723 103.039 11.4363 103.439 12.1536C103.838 12.8763 104.038 13.6784 104.038 14.56C104.038 14.9049 104.014 15.2061 103.964 15.4634ZM101.574 12.8352C101.322 12.3917 100.977 12.0605 100.539 11.8415C100.107 11.6279 99.6305 11.5212 99.1104 11.5212C98.2891 11.5212 97.6019 11.773 97.0489 12.2768C96.4959 12.7805 96.1947 13.5251 96.1454 14.5107H101.911C101.938 13.8427 101.826 13.2842 101.574 12.8352Z" fill="white"/>
<path d="M109.639 10.3868C110.275 9.99809 111.011 9.80371 111.849 9.80371V12.0951H111.225C110.299 12.0951 109.557 12.3169 108.999 12.7604C108.44 13.2094 108.161 13.9513 108.161 14.9861V20.1275H106.059V9.97618H108.161V11.9637C108.506 11.3012 108.999 10.7756 109.639 10.3868Z" fill="white"/>
</svg>
