<svg width="17" height="16" viewBox="0 0 17 16" fill="none" xmlns="http://www.w3.org/2000/svg">
<g clip-path="url(#clip0_2501_1788)">
<path d="M2.40332 3.99818C2.13328 3.99818 1.89079 3.99818 1.6478 3.99818C1.35372 3.99818 1.05913 4.00419 0.765039 3.99468C0.328165 3.97965 0.00201312 3.63796 9.11505e-06 3.2061C-0.00199489 2.76472 0.326662 2.42453 0.773556 2.406C0.836181 2.40349 0.898807 2.40449 0.961432 2.40449C5.66334 2.40449 10.3652 2.40449 15.0671 2.406C15.2034 2.406 15.3462 2.409 15.4745 2.44758C15.8537 2.56131 16.0681 2.92153 16.016 3.32433C15.9689 3.68856 15.6518 3.98415 15.2705 3.99317C14.7951 4.00419 14.3191 3.99718 13.8432 3.99818C13.7766 3.99818 13.7094 3.99818 13.6197 3.99818C13.6197 4.10089 13.6197 4.18005 13.6197 4.2592C13.6197 7.35239 13.6213 10.4451 13.6187 13.5383C13.6177 14.7181 12.8983 15.659 11.7861 15.9285C11.5757 15.9796 11.3527 15.9952 11.1353 15.9957C9.05662 16.0007 6.97797 15.9997 4.89981 15.9982C3.43237 15.9972 2.40482 14.9746 2.40382 13.5132C2.40231 10.4326 2.40382 7.35239 2.40332 4.27173C2.40332 4.19107 2.40332 4.11091 2.40332 3.99818ZM4.00051 4.0072C4.00051 4.09087 4.00051 4.15249 4.00051 4.21411C4.00051 7.3078 4.00051 10.4015 4.00051 13.4957C4.00051 14.0793 4.32416 14.4045 4.90582 14.405C6.97245 14.406 9.03909 14.406 11.1052 14.405C11.7004 14.405 12.0221 14.0834 12.0221 13.4882C12.0226 10.3945 12.0221 7.30079 12.0221 4.2066C12.0221 4.14097 12.0155 4.07534 12.012 4.0072H4.00051Z" fill="#4C4C4C"/>
<path d="M8.01165 0.0059022C8.55574 0.0059022 9.09983 -0.00111182 9.64392 0.00840722C10.0407 0.0149202 10.3578 0.311012 10.4105 0.698287C10.4626 1.08055 10.2231 1.45029 9.84582 1.56302C9.77518 1.58406 9.69853 1.59508 9.62488 1.59558C8.54923 1.59759 7.47308 1.60009 6.39743 1.59558C6.04071 1.59408 5.75163 1.37314 5.64692 1.04949C5.54322 0.728848 5.6344 0.367626 5.91696 0.182255C6.06927 0.0825555 6.27167 0.0204313 6.45454 0.0124152C6.97258 -0.00962886 7.49262 0.0043992 8.01165 0.0043992V0.0059022Z" fill="#4C4C4C"/>
<path d="M5.60614 9.1925C5.60614 8.54921 5.60513 7.90543 5.60614 7.26214C5.60714 6.76464 5.94231 6.40392 6.40273 6.40042C6.85864 6.39691 7.20934 6.75963 7.21085 7.25312C7.21485 8.55272 7.21485 9.85182 7.21085 11.1514C7.20934 11.6449 6.85814 12.0076 6.40223 12.0041C5.94231 12.0006 5.60714 11.6389 5.60614 11.1414C5.60463 10.4916 5.60614 9.8418 5.60614 9.1925Z" fill="#4C4C4C"/>
<path d="M10.4167 9.2006C10.4167 9.86893 10.4207 10.5378 10.4152 11.2061C10.4117 11.6154 10.1287 11.9281 9.72334 11.9917C9.35811 12.0488 8.98937 11.8299 8.86613 11.4716C8.83206 11.3729 8.81352 11.2642 8.81352 11.16C8.81002 9.8544 8.80951 8.54879 8.81252 7.24268C8.81352 6.84388 9.04198 6.53226 9.38867 6.43306C9.72585 6.33637 10.0986 6.45711 10.2734 6.75821C10.3566 6.902 10.4077 7.08486 10.4112 7.2512C10.4267 7.90049 10.4177 8.55029 10.4172 9.20009L10.4167 9.2006Z" fill="#4C4C4C"/>
</g>
<defs>
<clipPath id="clip0_2501_1788">
<rect width="16.0235" height="16" fill="white"/>
</clipPath>
</defs>
</svg>
