<svg width="34" height="33" viewBox="0 0 34 33" fill="none" xmlns="http://www.w3.org/2000/svg">
<g clip-path="url(#clip0_2501_1716)">
<path d="M17.477 33.0002H15.5427C15.4491 32.9817 15.3554 32.9591 15.261 32.9445C14.3609 32.8049 13.4462 32.7298 12.5631 32.5183C4.09549 30.4896 -1.36092 21.9792 0.296429 13.4116C0.985039 9.84985 2.64884 6.81367 5.3274 4.37407C9.14906 0.893078 13.6658 -0.494637 18.7831 0.155224C22.0429 0.569359 24.9144 1.90702 27.3775 4.08264C30.278 6.64495 32.092 9.83209 32.7596 13.6554C32.8678 14.2754 32.9299 14.9034 33.0131 15.5283V17.4625C32.9929 17.5763 32.9695 17.6893 32.9541 17.804C32.8758 18.3998 32.8298 19.0012 32.7176 19.5897C32.0928 22.8769 30.5969 25.7178 28.2453 28.092C25.779 30.5816 22.8163 32.1494 19.3547 32.7459C18.7331 32.8533 18.1034 32.9163 17.4778 33.0002H17.477ZM15.8212 18.6968C15.504 18.7348 15.1851 18.7663 14.8686 18.8139C14.5506 18.8615 14.2309 18.9075 13.9193 18.9858C10.0694 19.953 7.3569 22.2618 5.76979 25.9018C5.67453 26.1206 5.69229 26.2578 5.86263 26.433C9.29518 29.9544 13.4494 31.5059 18.3408 30.9344C21.846 30.5243 24.7829 28.942 27.2015 26.3813C27.3193 26.257 27.3557 26.1569 27.2814 25.9882C25.4287 21.7556 22.2222 19.333 17.6336 18.7509C17.4858 18.7324 17.3389 18.7162 17.1912 18.6993C20.4478 18.2157 22.533 15.3991 22.2884 12.421C22.0413 9.40504 19.5331 7.09541 16.522 7.08572C13.5164 7.07604 11.005 9.36225 10.7321 12.3944C10.4674 15.3353 12.5106 18.202 15.8196 18.6993L15.8212 18.6968Z" fill="#003B6D"/>
<path d="M15.8203 18.6975C12.512 18.2003 10.468 15.3336 10.7328 12.3927C11.0056 9.36055 13.5171 7.07433 16.5226 7.08402C19.5338 7.0937 22.0412 9.40414 22.289 12.4193C22.5328 15.3974 20.4484 18.214 17.1918 18.6975C17.3396 18.7145 17.4873 18.7306 17.6342 18.7492C22.2228 19.3313 25.4293 21.7539 27.282 25.9865C27.3563 26.156 27.32 26.2553 27.2021 26.3796C24.7835 28.9411 21.8466 30.5234 18.3414 30.9327C13.4509 31.505 9.29583 29.9535 5.86327 26.4313C5.69293 26.2569 5.67517 26.1189 5.77043 25.9001C7.35674 22.2601 10.07 19.9521 13.9199 18.9841C14.2307 18.9058 14.5512 18.8598 14.8693 18.8122C15.1857 18.7646 15.5038 18.7339 15.8219 18.6951L15.8203 18.6975Z" fill="white"/>
</g>
<defs>
<clipPath id="clip0_2501_1716">
<rect width="33.0121" height="33" fill="white"/>
</clipPath>
</defs>
</svg>
